#!OML:ASF X:\für Bonn\!DataBase\2005_08_11_Bastian_Final\c3d\Bastian.ASF
:FULLY-SPECIFIED
:DEGREES
247
root 22.4723 16.5448 -2.03173 355.905 -66.3448 36.6096
lowerback 71.6608 -7.45378 13.4317
upperback 15.5857 -1.62673 -2.01375
thorax -2.91862 -0.379696 -6.89186
lowerneck -6.60508 -8.8317 0.15096
upperneck -25.727 -10.6734 12.3976
head -6.0504 -6.83183 4.32782
rclavicle 6.04305e-014 0
rhumerus 67.0105 -15.7285 -65.8388
rradius 14.7603
rwrist 14.8147
rhand -48.3047 0.455892
rfingers 7.12502
rthumb -20.9612 -28.4315
lclavicle 6.04305e-014 0
lhumerus -8.4617 -28.7388 84.0689
lradius 49.1193
lwrist 31.3964
lhand -13.2037 -16.3657
lfingers 7.12502
lthumb 12.8969 13.2158
rfemur -66.6274 -12.1493 11.9788
rtibia 63.6031
rfoot -17.9084 -8.29115
rtoes 0.256831
lfemur -59.6875 -9.23962 -33.9264
ltibia 40.3822
lfoot -0.900667 -9.38556
ltoes -13.3581
248
root 22.4759 16.5399 -2.02803 355.61 -66.24 36.8653
lowerback 71.7386 -7.54866 13.419
upperback 15.5246 -1.71514 -2.11144
thorax -2.99894 -0.408581 -6.96071
lowerneck -6.61904 -8.85502 0.0211912
upperneck -25.71 -10.6697 12.5727
head -6.02107 -6.82971 4.39996
rclavicle -2.54444e-014 -4.13472e-014
rhumerus 67.5538 -15.5517 -66.7791
rradius 14.4786
rwrist 15.7395
rhand -47.8947 0.584813
rfingers 7.12502
rthumb -20.5672 -28.3456
lclavicle -2.54444e-014 -4.13472e-014
lhumerus -8.52314 -28.6646 84.0196
lradius 49.0573
lwrist 31.4553
lhand -13.1146 -16.3881
lfingers 7.12502
lthumb 12.9827 13.1879
rfemur -66.6294 -12.2964 11.8449
rtibia 63.7322
rfoot -17.9515 -8.25474
rtoes 0.140723
lfemur -59.5994 -9.24976 -34.1449
ltibia 40.3933
lfoot -0.867271 -9.48374
ltoes -13.0298
249
root 22.4782 16.5333 -2.02499 355.32 -66.1633 37.1522
lowerback 71.8075 -7.60767 13.3639
upperback 15.4575 -1.79658 -2.21776
thorax -3.09181 -0.436284 -7.02689
lowerneck -6.60233 -8.86897 -0.0853635
upperneck -25.7021 -10.6481 12.76
head -6.00147 -6.82227 4.47459
rclavicle 2.22639e-014 2.38542e-014
rhumerus 67.9609 -15.2395 -67.3092
rradius 14.2713
rwrist 16.2155
rhand -47.449 0.521617
rfingers 7.12502
rthumb -20.1389 -28.4546
lclavicle 2.22639e-014 2.38542e-014
lhumerus -8.60943 -28.5871 83.95
lradius 49.019
lwrist 31.4948
lhand -13.1308 -16.4157
lfingers 7.12502
lthumb 12.9671 13.1614
rfemur -66.6603 -12.3947 11.6884
rtibia 63.8652
rfoot -18.0124 -8.22287
rtoes 0.141907
lfemur -59.5611 -9.19464 -34.4102
ltibia 40.4258
lfoot -0.859936 -9.61869
ltoes -12.9887
250
root 22.4817 16.5252 -2.02143 355.12 -66.062 37.3426
lowerback 71.8646 -7.71051 13.371
upperback 15.3884 -1.88385 -2.33128
thorax -3.18299 -0.462691 -7.12255
lowerneck -6.59868 -8.87448 -0.158285
upperneck -25.6814 -10.6207 12.9198
head -5.98026 -6.81167 4.53394
rclavicle -2.22639e-014 -1.11319e-014
rhumerus 68.4448 -15.003 -68.1286
rradius 13.9953
rwrist 16.9429
rhand -47.0139 0.656925
rfingers 7.12502
rthumb -19.7206 -28.3627
lclavicle -2.22639e-014 -1.11319e-014
lhumerus -8.67931 -28.5324 83.8734
lradius 48.9535
lwrist 31.5356
lhand -13.1111 -16.4519
lfingers 7.12502
lthumb 12.9861 13.124
rfemur -66.7002 -12.522 11.5802
rtibia 64.0079
rfoot -18.0632 -8.21391
rtoes 0.0121602
lfemur -59.5386 -9.1786 -34.6305
ltibia 40.4748
lfoot -0.867797 -9.76096
ltoes -12.9267
251
root 22.4849 16.5187 -2.01861 354.897 -65.9572 37.567
lowerback 71.9529 -7.80545 13.3482
upperback 15.309 -1.97522 -2.43662
thorax -3.28634 -0.493911 -7.19473
lowerneck -6.64666 -8.90125 -0.26062
upperneck -25.6272 -10.6256 13.0955
head -5.93449 -6.814 4.59785
rclavicle -4.77083e-014 9.54166e-014
rhumerus 68.9239 -14.7147 -68.8943
rradius 13.7578
rwrist 17.5865
rhand -46.5498 0.589408
rfingers 7.12502
rthumb -19.2744 -28.4754
lclavicle -4.77083e-014 9.54166e-014
lhumerus -8.74122 -28.4213 83.796
lradius 48.9093
lwrist 31.6287
lhand -13.0822 -16.4899
lfingers 7.12502
lthumb 13.0139 13.0841
rfemur -66.7354 -12.6124 11.422
rtibia 64.1471
rfoot -18.1232 -8.21381
rtoes 0.0531247
lfemur -59.5264 -9.17319 -34.844
ltibia 40.5396
lfoot -0.867013 -9.89004
ltoes -12.698
252
root 22.4876 16.5104 -2.01495 354.745 -65.8802 37.7226
lowerback 72.0483 -7.90099 13.3536
upperback 15.2067 -2.04792 -2.55948
thorax -3.41258 -0.516047 -7.30521
lowerneck -6.63709 -8.92315 -0.28981
upperneck -25.5847 -10.6278 13.2309
head -5.91007 -6.81889 4.64195
rclavicle -9.54166e-015 -7.15625e-014
rhumerus 69.1933 -14.3648 -69.3689
rradius 13.7013
rwrist 17.9443
rhand -46.0869 0.35722
rfingers 7.12502
rthumb -18.8292 -28.7514
lclavicle -9.54166e-015 -7.15625e-014
lhumerus -8.86401 -28.3296 83.7171
lradius 48.8693
lwrist 31.6808
lhand -13.0364 -16.523
lfingers 7.12502
lthumb 13.0581 13.0482
rfemur -66.7961 -12.72 11.3379
rtibia 64.2964
rfoot -18.1844 -8.18103
rtoes -0.0571913
lfemur -59.5305 -9.1464 -35.0338
ltibia 40.6145
lfoot -0.872082 -10.0172
ltoes -12.5522
253
root 22.4907 16.5011 -2.01216 354.621 -65.7833 37.8767
lowerback 72.1326 -8.00852 13.3512
upperback 15.0958 -2.13665 -2.68253
thorax -3.55274 -0.546381 -7.40641
lowerneck -6.57855 -8.93322 -0.37721
upperneck -25.5669 -10.5975 13.4254
head -5.89538 -6.80865 4.71763
rclavicle -3.49861e-014 -2.54444e-014
rhumerus 69.4543 -13.9858 -69.9056
rradius 13.6612
rwrist 18.302
rhand -45.6785 0.15288
rfingers 7.12502
rthumb -18.4364 -28.9934
lclavicle -3.49861e-014 -2.54444e-014
lhumerus -9.00462 -28.2476 83.6392
lradius 48.8533
lwrist 31.785
lhand -13.0638 -16.5344
lfingers 7.12502
lthumb 13.0317 13.0385
rfemur -66.892 -12.8314 11.2461
rtibia 64.4492
rfoot -18.2549 -8.18379
rtoes -0.0457549
lfemur -59.5715 -9.10425 -35.2542
ltibia 40.6992
lfoot -0.861889 -10.1921
ltoes -12.4382
